<svg xmlns="http://www.w3.org/2000/svg" width="176" height="156" viewBox="0 0 176 156">
<path d="M0 1h1v-1h174v1h1v154h-1v1h-174v-1h-1z" fill="#001" stroke="none" />
<path d="M2 3h1v-1h170v1h1v150h-1v1h-170v-1h-1z" stroke="#ffe" stroke-width="2" stroke-linecap="square" fill="none" />
<g fill="#ffe" stroke="none">
<path d="M8 4m1 5v6h1v1h4v-1h1v-6h-1v6h-4v-6h4v-1h-4v1z" />
<path d="M16 4m2 5v1h1v5h-1v1h3v-1h-1v-7h-1v1z" />
<path d="M24 4m1 5v1h1v-1h4v2h-1v1h-2v1h-1v1h-1v2h6v-1h-5v-1h1v-1h2v-1h1v-1h1v-2h-1v-1h-4v1z" />
<path d="M32 4m1 4v1h5v1h-1v1h-2v1h2v1h1v2h-4v-1h-1v1h1v1h4v-1h1v-2h-1v-1h-1v-1h1v-1h1v-2z" />
<path d="M40 4m1 7v3h4v2h1v-2h1v-1h-1v-5h-2v1h1v4h-3v-2h1v-1h1v-1h-1v1h-1v1z" />
<path d="M48 4m1 4v4h5v3h-4v-1h-1v1h1v1h4v-1h1v-3h-1v-1h-4v-2h5v-1z" />
<path d="M56 4m1 6v5h1v1h4v-1h1v-3h-1v3h-4v-3h4v-1h-4v-1h1v-1h3v-1h-3v1h-1v1z" />
<path d="M64 4m1 4v3h1v-2h4v2h-1v1h-1v1h-1v3h1v-3h1v-1h1v-1h1v-3z" />
<path d="M72 4m1 5v2h1v1h-1v3h1v1h4v-1h1v-3h-1v3h-4v-3h4v-1h1v-2h-1v2h-4v-2h4v-1h-4v1z" />
<path d="M80 4m1 5v3h1v1h4v1h-1v1h-2v1h2v-1h1v-1h1v-5h-1v3h-4v-3h4v-1h-4v1z" />
<path d="M88 4m1 7v5h1v-2h4v2h1v-5h-1v-1h-1v-1h-2v1h2v1h1v2h-4v-2h1v-1h-1v1z" />
<path d="M96 4m1 5v7h5v-1h-4v-2h4v2h1v-2h-1v-1h-4v-2h4v2h1v-2h-1v-1z" />
<path d="M104 4m1 6v5h1v1h4v-1h1v-1h-1v1h-4v-5h4v1h1v-1h-1v-1h-4v1z" />
<path d="M112 4m1 5v7h4v-1h-3v-5h3v1h1v3h-1v1h1v-1h1v-3h-1v-1h-1v-1z" />
<path d="M120 4m1 5v7h6v-1h-5v-2h4v-1h-4v-2h5v-1z" />
<path d="M128 4m1 5v7h1v-3h4v-1h-4v-2h5v-1z" />
<path d="M136 4m0 7v3h1v1h1v1h4v-1h1v-3h-3v1h2v2h-4v-1h-1v-3h1v-1h4v1h1v-1h-1v-1h-4v1h-1v1z" />
<path d="M144 4m1 5v7h1v-3h4v3h1v-7h-1v3h-4v-3z" />
<path d="M152 4m1 5v1h2v5h-2v1h5v-1h-2v-5h2v-1z" />
<path d="M160 4m1 9v2h1v1h4v-1h1v-6h-1v6h-4v-2z" />
<path d="M8 16m1 5v7h1v-2h1v-1h1v1h1v1h1v1h1v-1h-1v-1h-1v-1h-1v-1h1v-1h1v-1h1v-1h-1v1h-1v1h-1v1h-1v1h-1v-4z" />
<path d="M16 16m1 5v7h6v-1h-5v-6z" />
<path d="M24 16m0 5v7h1v-5h1v1h1v1h1v-1h1v-1h1v5h1v-7h-1v1h-1v1h-1v1h-1v-1h-1v-1h-1v-1z" />
<path d="M32 16m0 5v7h1v-5h1v1h1v1h1v1h1v1h1v1h1v-7h-1v5h-1v-1h-1v-1h-1v-1h-1v-1h-1v-1z" />
<path d="M40 16m0 7v3h1v1h1v1h3v-1h1v-1h1v-3h-1v-1h-1v1h1v3h-1v1h-3v-1h-1v-3h1v-1h3v-1h-3v1h-1v1z" />
<path d="M48 16m1 5v7h1v-3h4v-1h-4v-2h4v2h1v-2h-1v-1z" />
<path d="M56 16m0 7v3h1v1h1v1h3v-1h1v1h1v-1h-1v-1h1v-3h-1v-1h-1v1h1v3h-1v-1h-1v1h1v1h-3v-1h-1v-3h1v-1h3v-1h-3v1h-1v1z" />
<path d="M64 16m1 5v7h1v-3h2v1h1v1h1v1h1v-1h-1v-1h-1v-1h1v-1h-4v-2h4v2h1v-2h-1v-1z" />
<path d="M72 16m1 6v2h1v1h4v2h-4v-1h-1v1h1v1h4v-1h1v-2h-1v-1h-4v-2h4v1h1v-1h-1v-1h-4v1z" />
<path d="M80 16m0 5v1h3v6h1v-6h3v-1z" />
<path d="M88 16m1 5v6h1v1h4v-1h1v-6h-1v6h-4v-6z" />
<path d="M96 16m0 5v2h1v2h1v2h1v1h1v-1h1v-2h1v-2h1v-2h-1v2h-1v2h-1v2h-1v-2h-1v-2h-1v-2z" />
<path d="M104 16m0 5v6h1v1h1v-1h1v-2h1v2h1v1h1v-1h1v-6h-1v6h-1v-2h-1v-2h-1v2h-1v2h-1v-6z" />
<path d="M112 16m0 5v1h1v1h1v1h1v1h-1v1h-1v1h-1v1h1v-1h1v-1h1v-1h1v1h1v1h1v1h1v-1h-1v-1h-1v-1h-1v-1h1v-1h1v-1h1v-1h-1v1h-1v1h-1v1h-1v-1h-1v-1h-1v-1z" />
<path d="M120 16m0 5v2h1v1h1v1h1v3h1v-3h1v-1h1v-1h1v-2h-1v2h-1v1h-1v1h-1v-1h-1v-1h-1v-2z" />
<path d="M128 16m1 5v1h5v1h-1v1h-2v1h-1v1h-1v2h6v-1h-5v-1h1v-1h2v-1h1v-1h1v-2z" />
<path d="M136 16m0 5v1h2v2h-1v1h-1v2h1v1h2v-1h1v-1h1v-1h-1v1h-1v1h-2v-2h1v1h1v-2h2v1h1v2h-1v1h1v-1h1v-3h-1v-1h-3v-1h3v-1h-3v-1h-1v1z" />
<path d="M144 16m0 5v6h1v1h2v-1h1v-1h-1v1h-2v-6zm5 0v1h1v4h1v-4h-1v-1z" />
<path d="M152 16m1 7v1h1v-1h4v3h-1v1h-2v1h2v-1h1v-1h1v-3h-1v-1h-4v1zm1 -3v1h3v-1z" />
<path d="M160 16m1 6v1h4v1h-1v1h-1v1h-1v1h-1v1h1v-1h1v-1h1v2h3v-1h-2v-3h1v-1h1v-1zm1 -2v1h2v-1z" />
<path d="M8 28m0 5v1h2v2h-1v1h1v2h-1v-2h-1v2h1v1h2v-4h3v3h-1v1h1v-1h1v-3h-1v-1h-3v-1h2v-1h-2v-1h-1v1zm6 -1v2h1v-2z" />
<path d="M16 28m0 6v1h2v1h-1v2h-1v2h1v-2h1v1h1v1h1v-1h1v-4h-1v4h-1v-1h-1v-2h1v-1h1v-1h-1v-2h-1v2zm5 -1v1h1v2h1v-2h-1v-1z" />
<path d="M24 28m0 5v1h3v1h-3v1h4v1h-1v1h2v-2h1v-1h-2v-1h2v-1h-3v-1h-1v1zm0 5v1h1v1h4v-1h-4v-1z" />
<path d="M32 28m2 7v2h1v1h1v1h1v1h1v-1h-1v-1h-1v-1h-1v-2h1v-1h1v-1h1v-1h-1v1h-1v1h-1v1z" />
<path d="M40 28m0 5v6h1v-6zm3 1v1h2v4h-1v1h1v-1h1v-4h1v-1h-1v-2h-1v2z" />
<path d="M48 28m0 10v1h1v1h5v-1h-5v-1h1v-1h-1v1zm1 -5v1h4v1h1v-1h-1v-1z" />
<path d="M56 28m0 6v1h2v1h-1v2h-1v2h1v-2h1v1h1v1h1v-1h1v-4h-1v4h-1v-1h-1v-2h1v-1h1v-1h-1v-2h-1v2zm4 -4v1h1v1h1v-1h-1v-1zm1 3v1h1v2h1v-2h-1v-1zm1 -4v1h1v1h1v-1h-1v-1z" />
<path d="M64 28m0 5v1h3v1h-3v1h4v1h-1v1h2v-2h1v-1h-2v-1h2v-1h-3v-1h-1v1zm0 5v1h1v1h4v-1h-4v-1zm4 -8v1h1v1h1v-1h-1v-1zm2 -1v1h1v1h1v-1h-1v-1z" />
<path d="M72 28m2 7v2h1v1h1v1h1v1h1v-1h-1v-1h-1v-1h-1v-2h1v-1h1v-1h1v-2h-1v-1h-1v1h1v2h-1v1h-1v1zm4 -6v1h1v1h1v-1h-1v-1z" />
<path d="M80 28m0 5v6h1v-6zm3 1v1h2v4h-1v1h1v-1h1v-4h1v-1h-1v-3h-1v-1h-1v1h1v3zm3 -5v1h1v1h1v-1h-1v-1z" />
<path d="M88 28m0 10v1h1v1h5v-1h-5v-1h1v-1h-1v1zm1 -5v1h4v1h1v-1h-1v-1zm3 -3v1h1v1h1v-1h-1v-1zm2 -1v1h1v1h1v-1h-1v-1z" />
<path d="M96 28m0 6v1h4v2h2v-1h-1v-1h2v-1h-3v-1h-1v-1h-1v1h1v1zm0 3v1h1v1h1v1h4v-1h-4v-1h-1v-1z" />
<path d="M104 28m1 4v7h1v1h3v-1h1v-2h-1v2h-3v-7z" />
<path d="M112 28m0 5v1h4v1h-3v2h1v-1h2v1h-2v1h2v1h-1v1h1v-1h1v-5h2v-1h-2v-1h-1v1z" />
<path d="M120 28m0 6v1h1v4h1v1h4v-1h-4v-4h3v2h-1v1h1v-1h1v-2h1v-1h-1v-2h-1v2h-3v-2h-1v2z" />
<path d="M128 28m0 7v1h3v1h-1v2h1v1h3v-1h-3v-2h1v-1h3v-1h-4v-1h1v-1h1v-1h-4v1h2v1h-1v1z" />
<path d="M136 28m0 6v1h4v2h2v-1h-1v-1h2v-1h-3v-1h-1v-1h-1v1h1v1zm0 3v1h1v1h1v1h4v-1h-4v-1h-1v-1zm4 -7v1h1v1h1v-1h-1v-1zm2 -1v1h1v1h1v-1h-1v-1z" />
<path d="M144 28m1 4v7h1v1h3v-1h1v-2h-1v2h-3v-7zm3 -2v1h1v1h1v-1h-1v-1zm2 -1v1h1v1h1v-1h-1v-1z" />
<path d="M152 28m0 5v1h4v1h-3v2h1v-1h2v1h-2v1h2v1h-1v1h1v-1h1v-5h2v-1h-2v-1h1v-1h-1v-1h-1v1h1v1h-1v1zm6 -4v1h1v1h1v-1h-1v-1z" />
<path d="M160 28m0 6v1h1v4h1v1h4v-1h-4v-4h3v2h-1v1h1v-1h1v-2h1v-1h-1v-3h-1v-1h-1v1h1v3h-3v-2h-1v2zm6 -5v1h1v1h1v-1h-1v-1z" />
<path d="M8 40m0 7v1h3v1h-1v2h1v1h3v-1h-3v-2h1v-1h3v-1h-4v-1h1v-1h1v-1h1v-1h-1v-1h-1v1h1v1h-4v1h2v1h-1v1zm6 -6v1h1v1h1v-1h-1v-1z" />
<path d="M16 40m0 6v1h2v1h-1v2h-1v2h1v-2h1v-2h1v-1h3v-1h-3v-2h-1v2zm3 4v1h1v1h3v-1h-3v-1zm1 -2v1h3v-1z" />
<path d="M24 40m0 6v1h2v2h-1v1h1v-1h4v2h-4v1h4v-1h1v-2h-1v-1h-3v-1h3v-1h-3v-2h-1v2z" />
<path d="M32 40m0 6v1h6v3h-2v1h-2v1h2v-1h2v-1h1v-3h-1v-1z" />
<path d="M40 40m0 5v1h4v1h-1v1h-1v2h1v1h1v1h2v-1h-2v-1h-1v-2h1v-1h2v-1h1v-1z" />
<path d="M48 40m0 9v2h1v1h6v-1h-6v-2h1v-1h2v-1h2v-1h-2v1h-1v-3h-1v4h-1v1z" />
<path d="M56 40m0 6v1h2v1h-1v2h-1v2h1v-2h1v-2h1v-1h3v-1h-3v-2h-1v2zm3 4v1h1v1h3v-1h-3v-1zm1 -8v1h1v1h1v-1h-1v-1zm0 6v1h3v-1zm2 -7v1h1v1h1v-1h-1v-1z" />
<path d="M64 40m0 6v1h2v2h-1v1h1v-1h4v2h-4v1h4v-1h1v-2h-1v-1h-3v-1h3v-1h-3v-2h-1v2zm4 -4v1h1v1h1v-1h-1v-1zm2 -1v1h1v1h1v-1h-1v-1z" />
<path d="M72 40m0 6v1h6v3h-2v1h-2v1h2v-1h2v-1h1v-3h-1v-1zm4 -4v1h1v1h1v-1h-1v-1zm2 -1v1h1v1h1v-1h-1v-1z" />
<path d="M80 40m0 5v1h4v1h-1v1h-1v2h1v1h1v1h2v-1h-2v-1h-1v-2h1v-1h2v-1h1v-1zm4 -3v1h1v1h1v-1h-1v-1zm2 -1v1h1v1h1v-1h-1v-1z" />
<path d="M88 40m0 9v2h1v1h6v-1h-6v-2h1v-1h2v-1h2v-1h-2v1h-1v-3h-1v4h-1v1zm4 -7v1h1v1h1v-1h-1v-1zm2 -1v1h1v1h1v-1h-1v-1z" />
<path d="M96 40m0 6v1h1v1h-1v1h1v-1h1v-1h2v-1h-1v-2h-1v2zm1 4v1h1v-1h2v1h-2v1h3v-1h1v-1h-1v-2h-1v1h-2v1zm4 -5v1h1v1h1v-1h-1v-1z" />
<path d="M104 40m0 5v7h1v-7zm2 5v1h1v1h4v-1h-4v-1zm1 -5v1h4v-1z" />
<path d="M112 40m0 8v3h1v1h1v-1h1v-2h1v3h2v-1h-1v-1h1v1h1v1h1v-1h-1v-4h-1v2h-2v-1h-1v1h-1v2h-1v-2h1v-1h1v-1h1v1h1v-1h1v-1h-1v-2h-1v2h-1v1h-1v-2h-1v3z" />
<path d="M120 40m0 6v1h2v2h-1v1h-1v1h1v-1h1v2h1v-4h1v-1h2v2h-1v1h1v1h-1v-1h-1v2h3v-5h-1v-1h-2v1h-1v-3h-1v2z" />
<path d="M128 40m0 7v4h1v1h2v-1h-2v-4h1v-1h1v5h1v-5h1v1h1v4h-1v1h1v-1h1v-4h-1v-1h-1v-1h-3v1h-1v1z" />
<path d="M136 40m0 5v7h1v-7zm2 5v1h1v-1h2v1h-2v1h3v-2h1v-1h-1v-3h1v-1h-1v-1h-1v1h-2v1h2v3h-2v1z" />
<path d="M144 40m0 4v1h2v1h-1v1h-1v4h1v1h3v-1h1v-2h1v-2h1v-1h-1v-1h-1v4h-1v2h-3v-4h1v-1h1v-1h1v-1z" />
<path d="M152 40m0 9v2h1v-2h1v-1h-1v1zm2 -5v1h2v1h1v-1h-1v-1zm0 7v1h2v-1h1v-3h-1v-1h-1v1h1v3zm4 -2v2h1v-2z" />
<path d="M160 40m0 7v1h1v-1h1v-1h1v1h1v1h1v1h1v1h1v-1h-1v-1h-1v-1h-1v-1h-1v-1h-1v1h-1v1z" />
<path d="M8 52m0 4v8h1v-8zm2 5v2h1v-2h2v2h-2v1h3v-2h1v-1h-1v-2h1v-1h-1v-1h1v-1h-4v1h2v1h-2v1h2v1h-2v1z" />
<path d="M16 52m0 5v7h1v-7zm2 5v1h1v-1h2v1h-2v1h3v-2h1v-1h-1v-3h1v-1h-1v-2h-1v-1h-1v1h1v2h-2v1h2v3h-2v1zm4 -9v1h1v1h1v-1h-1v-1z" />
<path d="M24 52m0 4v1h2v1h-1v1h-1v4h1v1h3v-1h1v-2h1v-2h1v-1h-1v-1h-1v4h-1v2h-3v-4h1v-1h1v-1h1v-1zm4 -2v1h1v1h1v-1h-1v-1zm2 -1v1h1v1h1v-1h-1v-1z" />
<path d="M32 52m0 9v2h1v-2h1v-1h-1v1zm2 -5v1h2v1h1v-1h-1v-1zm0 7v1h2v-1h1v-3h-1v-1h-1v1h1v3zm2 -9v1h1v1h1v-1h-1v-1zm2 -1v1h1v1h1v-1h-1v-1zm0 8v2h1v-2z" />
<path d="M40 52m0 7v1h1v-1h1v-1h1v1h1v1h1v1h1v1h1v-1h-1v-1h-1v-1h-1v-1h-1v-1h-1v1h-1v1zm4 -5v1h1v1h1v-1h-1v-1zm2 -1v1h1v1h1v-1h-1v-1z" />
<path d="M48 52m0 4v8h1v-8zm2 5v2h1v-2h2v2h-2v1h3v-2h1v-1h-1v-2h1v-1h-1v-1h1v-1h-1v-1h-1v-1h-1v1h1v1h-2v1h2v1h-2v1h2v1h-2v1zm4 -8v1h1v1h1v-1h-1v-1z" />
<path d="M56 52m0 5v7h1v-7zm2 5v1h1v-1h2v1h-2v1h3v-2h1v-1h-1v-3h1v-1h-1v-1h2v-3h-3v4h-2v1h2v3h-2v1zm4 -8h1v1h-1z" />
<path d="M64 52m0 4v1h2v1h-1v1h-1v4h1v1h3v-1h1v-2h1v-2h1v-1h-1v-1h-1v4h-1v2h-3v-4h1v-1h1v-1h1v-1zm5 -3v3h3v-3zm1 1h1v1h-1z" />
<path d="M72 52m0 9v2h1v-2h1v-1h-1v1zm2 -5v1h2v1h1v-1h-1v-1zm0 7v1h2v-1h1v-3h-1v-1h-1v1h1v3zm3 -10v3h3v-3zm1 1h1v1h-1zm0 7v2h1v-2z" />
<path d="M80 52m0 7v1h1v-1h1v-1h1v1h1v1h1v1h1v1h1v-1h-1v-1h-1v-1h-1v-1h-1v-1h-1v1h-1v1zm5 -6v3h3v-3zm1 1h1v1h-1z" />
<path d="M88 52m0 4v8h1v-8zm2 5v2h1v-2h2v2h-2v1h3v-2h1v-1h-1v-2h1v-1h-1v-1h1v-1h1v-3h-3v3h-2v1h2v1h-2v1h2v1h-2v1zm4 -7h1v1h-1z" />
<path d="M96 52m1 10v1h1v-1h2v1h-2v1h3v-2h1v1h1v-1h-1v-1h-1v-1h2v-1h-2v-1h2v-1h-2v-1h-1v1h-2v1h2v1h-2v1h2v1h-2v1z" />
<path d="M104 52m0 9v2h1v1h1v-1h-1v-2h1v2h1v-2h3v1h-1v1h-1v1h1v-1h1v-1h1v-4h-1v2h-2v-3h1v-1h-4v1h2v3h-2v1z" />
<path d="M112 52m0 5v1h2v2h-1v1h1v1h-1v-1h-1v2h2v1h4v-1h1v-2h-1v2h-3v-5h1v-1h-1v-1h-1v1zm6 0v2h1v-2z" />
<path d="M120 52m0 8v3h1v1h2v-1h1v-2h-2v1h1v1h-2v-2h1v-1h1v-1h1v2h1v-1h1v3h-1v1h1v-1h1v-3h-1v-1h-1v-3h-1v2h-1v1h-1v-2h-1v3z" />
<path d="M128 52m0 6v1h2v1h-2v1h2v2h1v1h3v-1h1v-1h-1v1h-3v-2h2v-1h-2v-1h2v-1h-2v-2h-1v2z" />
<path d="M136 52m0 6v1h1v4h1v1h1v-1h-1v-4h4v2h-2v-1h-1v1h1v1h2v-1h1v-2h-1v-1h-1v-2h-1v2h-2v-2h-1v2z" />
<path d="M144 52m0 5v5h1v-3h1v-1h2v4h-1v-1h-1v1h1v1h-1v1h2v-1h2v-1h-1v-4h1v4h1v-4h-1v-1h-1v-1h-1v1h-2v1h-1v-1z" />
<path d="M152 52m0 10v1h1v-1h2v1h-2v1h3v-1h1v1h1v-1h-1v-1h-1v-4h2v-1h-2v-1h-1v5h-2v1z" />
<path d="M160 52m1 6v3h2v-1h3v2h-1v1h-2v1h2v-1h1v-1h1v-2h-1v-1h-3v1h-1v-2zm1 -2v1h2v1h1v-1h-1v-1z" />
<path d="M8 64m1 4v4h1v1h1v-1h-1v-4zm2 7v1h1v-1h1v-1h1v-6h-1v6h-1v1z" />
<path d="M16 64m0 8v1h1v-1h5v3h-2v-2h-2v1h1v1h-1v-1h-1v1h1v1h4v-1h1v-3h-1v-1h-2v-1h1v-1h1v-1h-5v1h3v1h-2v1h-1v1z" />
<path d="M24 64m0 6v1h2v2h-1v1h-1v1h1v-1h1v2h1v-4h1v-1h2v2h-1v2h1v1h1v-1h-1v-2h1v-2h-1v-1h-2v1h-1v-3h-1v2z" />
<path d="M32 64m1 4v1h3v1h-1v1h-1v1h-1v1h1v-1h4v3h-4v1h4v-1h1v-3h-1v-1h-2v-1h1v-1h1v-1z" />
<path d="M40 64m0 6v1h2v2h-1v1h-1v1h1v-1h1v2h1v-4h1v-1h2v4h-1v1h1v-1h1v-4h-1v-1h-2v1h-1v-3h-1v2z" />
<path d="M48 64m1 5v1h1v2h-1v1h1v2h1v1h3v-1h-3v-2h-1v-1h1v1h1v1h1v-2h1v-1h-1v1h-1v-1h-1v-1h2v-1h-1v-1h-1v1z" />
<path d="M56 64m1 10v2h1v-2h1v-1h1v2h1v1h2v-1h-2v-3h-1v-2h1v-2h-1v2h-1v2h-1v2z" />
<path d="M64 64m0 6v1h2v1h-1v1h1v1h-1v-1h-1v3h2v-1h1v-1h1v-1h1v2h-1v1h1v-1h1v-2h-1v-1h-2v-1h1v-1h-1v-1h-1v1z" />
<path d="M72 64m0 6v5h1v1h1v-1h1v-1h-1v1h-1v-5zm4 0v1h1v4h1v-4h-1v-1z" />
<path d="M80 64m0 8v1h1v-1h3v2h-1v1h-2v1h2v-1h1v-1h1v-2h-1v-1h-3v1zm1 -3v1h3v-1z" />
<path d="M88 64m0 6v1h3v-1zm0 2v1h2v1h-1v1h-1v1h1v-1h1v1h3v-1h-2v-2h1v-1z" />
<path d="M96 64m0 6v1h2v1h-1v1h-1v2h1v1h1v-1h-1v-2h1v2h1v-2h2v2h-1v1h1v-1h1v-2h-1v-1h-2v-1h1v-1h-1v-1h-1v1zm5 0v1h1v-1z" />
<path d="M104 64m0 7v1h4v2h-1v1h-2v1h2v-1h1v-1h1v-2h-1v-1z" />
<path d="M112 64m0 7v1h1v1h1v3h1v-2h2v-1h-3v-2h1v1h1v-1h1v2h1v-3h-2v-1h-1v1h-1v-1h-1v2z" />
<path d="M120 64m0 6v4h1v-2h1v-1h1v3h-1v1h1v1h1v-1h1v-1h-1v-3h1v3h1v-3h-1v-1h-1v-1h-1v1h-1v1h-1v-1z" />
<path d="M128 64m0 10v1h1v-1h1v1h-1v1h2v-1h1v1h1v-1h-1v-1h-1v-2h2v-1h-2v-1h-1v3h-1v1z" />
<path d="M136 64m0 7v1h1v2h-1v1h1v1h1v-3h1v-1h2v3h-1v1h1v-1h1v-3h-1v-1h-2v1h-1v-2h-1v1z" />
<path d="M144 64m0 4v1h3v3h-1v3h-1v1h1v-1h1v-3h1v1h1v-1h1v-1h-1v1h-1v-3h2v2h1v-3z" />
<path d="M152 64m0 8v1h2v-1h1v4h1v-6h1v-1h1v-1h-1v1h-1v1h-1v1h-1v1z" />
<path d="M160 64m0 6v3h1v-2h5v3h-1v1h-3v1h3v-1h1v-1h1v-4h-3v-2h-1v2z" />
<path d="M8 76m0 11v1h7v-1h-3v-5h2v-1h-5v1h2v5z" />
<path d="M16 76m0 6v1h3v1h-1v2h-1v1h1v-1h1v-2h1v3h-1v1h2v-5h2v-1h-2v-2h-1v2z" />
<path d="M24 76m0 6v1h3v2h-1v1h-1v1h-1v1h1v-1h1v-1h1v-1h1v-2h2v4h-1v-1h-1v1h1v1h1v-1h1v-5h-3v-2h-1v2z" />
<path d="M32 76m0 6v1h3v1h-3v1h3v3h1v-3h3v-1h-3v-1h3v-1h-3v-2h-1v2z" />
<path d="M40 76m1 6v1h1v-1h1v-1h3v2h-1v2h-1v2h-2v1h2v-1h1v-2h1v-1h1v-4h-5v2z" />
<path d="M48 76m0 8v1h1v-1h1v-1h2v4h-2v1h2v-1h1v-4h2v-1h-5v-2h-1v4z" />
<path d="M56 76m0 11v1h7v-7h-6v1h5v5z" />
<path d="M64 76m0 6v1h3v2h-1v1h-1v1h-1v1h1v-1h1v-1h1v-1h1v-2h2v4h-1v-1h-1v1h1v1h1v-1h1v-5h-3v-2h-1v2zm4 -4v1h1v1h1v-1h-1v-1zm2 -1v1h1v1h1v-1h-1v-1z" />
<path d="M72 76m0 6v1h3v1h-3v1h3v3h1v-3h3v-1h-3v-1h3v-1h-3v-2h-1v2zm4 -4v1h1v1h1v-1h-1v-1zm2 -1v1h1v1h1v-1h-1v-1z" />
<path d="M80 76m1 6v1h1v-1h1v-1h3v2h-1v2h-1v2h-2v1h2v-1h1v-2h1v-1h1v-4h-1v-1h-1v-1h-1v1h1v1h-3v2zm5 -5v1h1v1h1v-1h-1v-1z" />
<path d="M88 76m0 8v1h1v-1h1v-1h2v4h-2v1h2v-1h1v-4h2v-1h-5v-2h-1v4zm4 -6v1h1v1h1v-1h-1v-1zm2 -1v1h1v1h1v-1h-1v-1z" />
<path d="M96 76m0 11v1h7v-7h-6v1h5v5zm4 -9v1h1v1h1v-1h-1v-1zm2 -1v1h1v1h1v-1h-1v-1z" />
<path d="M104 76m0 6v1h2v2h1v-2h2v2h-1v2h-2v1h2v-1h1v-1h1v-3h1v-1h-1v-2h-1v2h-2v-2h-1v2z" />
<path d="M112 76m1 5v1h3v-1zm0 2v1h3v-1zm0 4v1h3v-1h1v-1h1v-1h1v-3h-1v3h-1v1h-1v1z" />
<path d="M120 76m0 5v1h5v1h-1v1h-1v1h-1v1h-1v1h-1v1h1v-1h1v-1h1v-1h1v1h1v1h1v1h1v-1h-1v-1h-1v-1h-1v-1h1v-1h1v-1h1v-1z" />
<path d="M128 76m0 6v1h1v4h1v1h5v-1h-5v-4h4v1h-1v1h1v-1h1v-2h-5v-2h-1v2z" />
<path d="M136 76m1 5v2h1v1h1v-1h-1v-2zm1 6v1h2v-1h1v-1h1v-2h1v-3h-1v3h-1v2h-1v1z" />
<path d="M144 76m0 6v1h2v2h1v-2h2v2h-1v2h-2v1h2v-1h1v-1h1v-3h1v-1h-1v-3h-1v-1h-1v1h1v3h-2v-2h-1v2zm6 -5v1h1v1h1v-1h-1v-1z" />
<path d="M152 76m1 5v1h3v-1zm0 2v1h3v-1zm0 4v1h3v-1h1v-1h1v-1h1v-3h-1v3h-1v1h-1v1zm3 -9v1h1v1h1v-1h-1v-1zm2 -1v1h1v1h1v-1h-1v-1z" />
<path d="M160 76m0 5v1h5v1h-1v1h-1v1h-1v1h-1v1h-1v1h1v-1h1v-1h1v-1h1v1h1v1h1v1h1v-1h-1v-1h-1v-1h-1v-1h1v-1h1v-1h1v-1zm4 -3v1h1v1h1v-1h-1v-1zm2 -1v1h1v1h1v-1h-1v-1z" />
<path d="M8 88m0 6v1h1v4h1v1h5v-1h-5v-4h4v1h-1v1h1v-1h1v-2h-5v-2h-1v2zm4 -4v1h1v1h1v-1h-1v-1zm2 -1v1h1v1h1v-1h-1v-1z" />
<path d="M16 88m1 5v2h1v1h1v-1h-1v-2zm1 6v1h2v-1h1v-1h1v-2h1v-3h-1v3h-1v2h-1v1zm2 -9v1h1v1h1v-1h-1v-1zm2 -1v1h1v1h1v-1h-1v-1z" />
<path d="M24 88m1 7v1h1v-1h1v-2h3v3h-1v-1h-2v1h2v2h-1v1h-2v1h2v-1h1v-1h1v-1h1v-5h-5v3z" />
<path d="M32 88m0 7v1h4v2h-1v1h-2v1h2v-1h1v-1h1v-2h2v-1h-2v-2h1v-1h-1v1h-4v1h3v1z" />
<path d="M40 88m1 4v3h1v-3zm1 7v1h2v-1h1v-1h1v-2h1v-3h-1v3h-1v2h-1v1zm1 -7v3h1v-3z" />
<path d="M48 88m0 7v1h4v2h-1v1h-1v1h1v-1h1v-1h1v-2h2v-1zm1 -3v1h5v-1z" />
<path d="M56 88m3 5v7h1v-3h1v1h1v-1h-1v-1h-1v-3z" />
<path d="M64 88m1 7v1h1v-1h1v-2h3v3h-1v-1h-2v1h2v2h-1v1h-2v1h2v-1h1v-1h1v-1h1v-5h-1v-1h-1v-1h-1v1h1v1h-3v3zm5 -6v1h1v1h1v-1h-1v-1z" />
<path d="M72 88m0 7v1h4v2h-1v1h-2v1h2v-1h1v-1h1v-2h2v-1h-2v-2h1v-2h-1v-1h-1v1h1v2h-4v1h3v1zm6 -6v1h1v1h1v-1h-1v-1z" />
<path d="M80 88m1 4v3h1v-3zm1 7v1h2v-1h1v-1h1v-2h1v-3h-1v3h-1v2h-1v1zm1 -7v3h1v-3zm1 -2v1h1v1h1v-1h-1v-1zm2 -1v1h1v1h1v-1h-1v-1z" />
<path d="M88 88m0 7v1h4v2h-1v1h-1v1h1v-1h1v-1h1v-2h2v-1zm1 -3v1h5v-2h-1v-1h-1v1h1v1zm5 -3v1h1v1h1v-1h-1v-1z" />
<path d="M96 88m3 5v7h1v-3h1v1h1v-1h-1v-1h-1v-3zm1 -3v1h1v1h1v-1h-1v-1zm2 -1v1h1v1h1v-1h-1v-1z" />
<path d="M104 88m0 6v1h4v2h-1v2h-2v1h2v-1h1v-2h1v-2h2v-1h-2v-2h-1v2z" />
<path d="M112 88m0 11v1h7v-1zm1 -6v1h5v-1z" />
<path d="M120 88m1 5v1h5v1h-1v2h-1v-1h-1v1h1v1h-1v1h-2v1h2v-1h1v-1h1v1h1v1h1v-1h-1v-1h-1v-1h1v-2h1v-2z" />
<path d="M128 88m0 6v1h5v1h-2v1h-2v1h-1v1h1v-1h2v2h1v-3h1v1h1v1h1v-1h-1v-1h-1v-1h1v-1h1v-1h-3v-2h-1v2z" />
<path d="M136 88m0 11v1h2v-1h1v-1h1v-1h1v-1h1v-2h1v-2h-1v2h-1v2h-1v1h-1v1h-1v1z" />
<path d="M144 88m0 9v1h1v-1h1v-3h-1v3zm4 -4v1h1v2h1v3h1v-3h-1v-2h-1v-1z" />
<path d="M152 88m1 4v7h1v1h5v-1h-5v-3h3v-1h2v-1h-3v1h-2v-3z" />
<path d="M160 88m1 5v1h5v2h-1v2h-1v1h-2v1h2v-1h1v-1h1v-2h1v-3z" />
<path d="M8 100m0 7v1h1v-1h1v-1h1v1h1v1h1v1h1v1h1v-1h-1v-1h-1v-1h-1v-1h-1v-1h-1v1h-1v1z" />
<path d="M16 100m0 6v1h3v5h1v-5h3v-1h-3v-2h-1v2zm0 4v1h1v-1h1v-2h-1v2zm5 -2v1h1v2h1v-2h-1v-1z" />
<path d="M24 100m0 9v1h1v-1h1v-3h-1v3zm4 -7v1h1v1h1v-1h-1v-1zm0 3v1h1v2h1v3h1v-3h-1v-2h-1v-1zm2 -4v1h1v1h1v-1h-1v-1z" />
<path d="M32 100m1 4v7h1v1h5v-1h-5v-3h3v-1h2v-1h-3v1h-2v-3zm3 -2v1h1v1h1v-1h-1v-1zm2 -1v1h1v1h1v-1h-1v-1z" />
<path d="M40 100m1 5v1h5v2h-1v2h-1v1h-2v1h2v-1h1v-1h1v-2h1v-3zm3 -3v1h1v1h1v-1h-1v-1zm2 -1v1h1v1h1v-1h-1v-1z" />
<path d="M48 100m0 7v1h1v-1h1v-1h1v1h1v1h1v1h1v1h1v-1h-1v-1h-1v-1h-1v-1h-1v-1h-1v1h-1v1zm4 -5v1h1v1h1v-1h-1v-1zm2 -1v1h1v1h1v-1h-1v-1z" />
<path d="M56 100m0 6v1h3v5h1v-5h3v-1h-3v-2h-1v2zm0 4v1h1v-1h1v-2h-1v2zm4 -8v1h1v1h1v-1h-1v-1zm1 6v1h1v2h1v-2h-1v-1zm1 -7v1h1v1h1v-1h-1v-1z" />
<path d="M64 100m0 9v1h1v-1h1v-3h-1v3zm4 -4v1h1v2h1v3h1v-3h-1v-2h-1v-1zm1 -4v3h3v-3zm1 1h1v1h-1z" />
<path d="M72 100m1 4v7h1v1h5v-1h-5v-3h3v-1h2v-1h-3v1h-2v-3zm4 -3v3h3v-3zm1 1h1v1h-1z" />
<path d="M80 100m1 5v1h5v2h-1v2h-1v1h-2v1h2v-1h1v-1h1v-2h1v-3zm4 -4v3h3v-3zm1 1h1v1h-1z" />
<path d="M88 100m0 7v1h1v-1h1v-1h1v1h1v1h1v1h1v1h1v-1h-1v-1h-1v-1h-1v-1h-1v-1h-1v1h-1v1zm5 -6v3h3v-3zm1 1h1v1h-1z" />
<path d="M96 100m0 6v1h3v5h1v-5h3v-1h-3v-2h-1v2zm0 4v1h1v-1h1v-2h-1v2zm5 -9v3h3v-3zm0 7v1h1v2h1v-2h-1v-1zm1 -6h1v1h-1z" />
<path d="M104 100m0 5v1h6v2h-1v1h-1v1h-1v-1h-1v1h1v1h1v1h1v-1h-1v-1h1v-1h1v-1h1v-3z" />
<path d="M112 100m1 10v1h5v1h1v-1h-1v-1zm1 -6v1h4v-1zm0 3v1h4v-1z" />
<path d="M120 100m0 11v1h4v-1h2v1h1v-3h-1v-1h-1v1h1v1h-2v1h-2v-2h1v-2h1v-2h-1v2h-1v2h-1v2z" />
<path d="M128 100m0 11v1h2v-1h1v-1h1v-1h1v1h1v-1h-1v-2h1v-3h-1v3h-1v1h-1v-1h-1v1h1v2h-1v1z" />
<path d="M136 100m0 8v1h2v2h1v1h4v-1h-4v-2h4v-1h-4v-2h3v-1h-5v1h1v2z" />
<path d="M144 100m0 6v1h2v2h1v3h1v-3h-1v-2h3v1h-1v1h1v-1h1v-2h-4v-1h-1v1z" />
<path d="M152 100m0 11v1h7v-1h-2v-6h-4v1h3v5z" />
<path d="M160 100m1 5v1h4v2h-3v1h3v2h-4v1h5v-7z" />
<path d="M8 112m0 7v1h6v1h-1v1h-1v1h-2v1h2v-1h1v-1h1v-1h1v-2zm1 -2v1h5v-1z" />
<path d="M16 112m1 4v4h1v1h1v-1h-1v-4zm2 7v1h1v-1h1v-1h1v-6h-1v6h-1v1z" />
<path d="M24 112m0 11v1h1v-1h1v-6h-1v6zm3 -6v7h3v-1h1v-1h-1v1h-2v-6z" />
<path d="M32 112m1 5v7h2v-1h2v-1h1v-1h1v-1h-1v1h-1v1h-2v1h-1v-6z" />
<path d="M40 112m1 5v6h6v-6zm1 1h4v4h-4z" />
<path d="M48 112m1 5v3h1v-2h4v4h-1v1h-2v1h2v-1h1v-1h1v-5z" />
<path d="M56 112m1 5v1h5v1h-5v1h5v1h-1v1h-1v1h-2v1h2v-1h1v-1h1v-1h1v-4z" />
<path d="M64 112m1 6v1h3v-1zm0 5v1h3v-1h1v-1h1v-1h1v-3h-1v3h-1v1h-1v1z" />
<path d="M72 112m1 7v1h2v3h-1v1h1v-1h1v-1h1v-1h-1v-1h1v1h1v-2z" />
<path d="M80 112m1 9v1h2v2h1v-3h1v-2h-1v1h-1v1z" />
<path d="M88 112m1 8v2h1v-1h3v1h-1v1h-1v1h1v-1h1v-1h1v-2h-2v-1h-1v1z" />
<path d="M96 112m1 8v1h2v2h-2v1h5v-1h-2v-2h2v-1z" />
<path d="M104 112m1 8v1h2v1h1v1h-1v-1h-1v1h-1v1h1v-1h1v1h2v-3h1v-1h-1v-1h-1v1z" />
<path d="M112 112m0 7v2h1v-2zm1 4v1h2v-1h2v-4h-1v3h-1v1zm1 -4v2h1v-2z" />
<path d="M120 112m1 8v1h2v3h1v-3h1v1h1v-2h-3v-1h-1v1z" />
<path d="M128 112m1 11v1h5v-1h-1v-4h-3v1h2v3z" />
<path d="M136 112m1 7v1h3v1h-2v1h2v1h-3v1h4v-5z" />
<path d="M144 112m1 8v2h1v-1h2v2h-1v1h1v-1h1v-3z" />
<path d="M152 112m0 6v3h1v-2h5v3h-1v1h-3v1h3v-1h1v-1h1v-4h-3v-2h-1v2zm4 -4v1h1v1h1v-1h-1v-1zm2 -1v1h1v1h1v-1h-1v-1z" />
<path d="M160 112m1 8v1h1v1h1v1h1v1h1v-1h-1v-1h-1v-1h-1v-1z" />
<path d="M8 124m1 9v2h1v1h2v-1h1v-2h-1v2h-2v-2h2v-1h-2v1z" />
<path d="M16 124m3 10v2h2v-2z" />
<path d="M24 124m3 5v2h2v-2zm0 4v2h2v-2z" />
<path d="M32 124m1 5v2h1v-2h4v2h-2v1h-1v2h1v-2h2v-1h1v-2h-1v-1h-4v1zm2 6v1h1v-1z" />
<path d="M40 124m3 4v6h1v-6zm0 7v1h1v-1z" />
<path d="M48 124m0 4v1h1v1h1v1h1v-1h-1v-1h-1v-1zm3 0v1h1v1h1v1h1v-1h-1v-1h-1v-1z" />
<path d="M56 124m0 4v3h3v-3zm1 1h1v1h-1z" />
<path d="M64 124m0 8v1h7v-1z" />
<path d="M72 124m0 7v2h1v-2zm2 0v2h1v-2zm2 0v2h1v-2zm2 0v2h1v-2z" />
<path d="M80 124m1 7v2h1v-2zm2 0v2h1v-2zm2 0v2h1v-2z" />
<path d="M88 124m3 7v2h2v-2z" />
<path d="M96 124m2 4v4h1v-3h3v-1z" />
<path d="M104 124m2 5v7h1v-1h1v-1h1v-1h1v-1h-1v-1h-1v-1h-1v-1z" />
<path d="M112 124m0 6v1h1v1h1v1h-1v1h-1v1h1v-1h1v-1h1v3h1v-3h1v1h1v1h1v-1h-1v-1h-1v-1h1v-1h1v-1h-1v1h-1v1h-1v-3h-1v3h-1v-1h-1v-1z" />
<path d="M120 124m0 4v8h8v-8z" />
<path d="M128 124m0 6v1h1v1h1v1h1v1h1v-1h1v-1h1v-1h1v-1z" />
<path d="M136 124m0 7v3h4v2h1v-1h1v-1h1v-1h1v-1h-1v-1h-1v-1h-1v-1h-1v2z" />
<path d="M144 124m0 11v1h3v-1h1v-5h1v1h1v2h-1v1h1v-1h1v-2h-1v-1h-1v-1h-1v-1h-1v6h-2v1z" />
<path d="M152 124m1 7v1h1v-1h4v3h-1v1h-2v1h2v-1h1v-1h1v-3h-1v-1h-4v1zm1 -3v1h3v-1h1v-1h-1v-1h-1v1h1v1zm4 -3v1h1v1h1v-1h-1v-1z" />
<path d="M160 124m0 5v7h6v-2h1v2h1v-2h-1v-1h1v-2h-1v2h-1v-2h-1v2h1v1h-1v1h-4v-2h3v-1h-3v-2h4v-1z" />
<path d="M8 136m0 5v7h4v-1h1v1h1v-1h1v-3h-1v3h-1v-3h-1v3h-3v-6z" />
<path d="M16 136m0 5v1h1v-1zm0 5v1h1v-1zm1 -3v2h1v1h3v-1h1v-2h-1v-1h-3v1zm2 -3v1h1v-1zm0 7v1h1v-1zm3 -6v1h1v-1zm0 5v1h1v-1z" />
<path d="M24 136m1 4v1h1v1h1v4h-1v1h-1v1h3v-1h1v-1h1v-4h-1v-1h-1v-1z" />
<path d="M32 136m0 6v1h1v1h1v1h-1v2h-1v1h1v-1h2v-1h1v1h2v1h1v-1h-1v-2h-1v-1h1v-1h1v-1h-3v-2h-1v2z" />
<path d="M40 136m0 8v3h1v1h5v-1h1v-3h-1v-1h-1v-1h-1v-2h-1v2h-1v1h-1v1z" />
<path d="M48 136m0 6v2h1v2h1v1h1v1h1v-1h1v-1h1v-2h1v-2h-1v-1h-2v1h-1v-1h-2v1z" />
<path d="M56 136m1 5v5h1v2h1v-1h1v1h1v-1h1v1h1v-2h1v-5h-1v-1h-5v1zm1 2h2v2h1v-2h2v2h-2v1h-1v-1h-2z" />
<path d="M64 136m1 6v2h2v4h2v-4h2v-2h-2v-2h-2v2z" />
</g>
</svg>

