<svg xmlns="http://www.w3.org/2000/svg" width="192" height="72" viewBox="0 0 96 36">
<path d="M0 1h1v-1h94v1h1v34h-1v1h-94v-1h-1z" fill="#001" stroke="none" />
<path d="M2 3h1v-1h90v1h1v30h-1v1h-90v-1h-1z" stroke="#3cf" stroke-width="2" stroke-linecap="square" fill="none" />
<g fill="#3cf" stroke="none">
<path d="M8 4m0 6v1h1v1h1v1h-1v1h-1v1h1v-1h1v-1h1v3h1v-3h1v1h1v1h1v-1h-1v-1h-1v-1h1v-1h1v-1h-1v1h-1v1h-1v-3h-1v3h-1v-1h-1v-1z" />
<path d="M16 4m0 10v1h1v1h5v-1h-5v-1h1v-1h-1v1zm1 -5v1h4v1h1v-1h-1v-1h-3z" />
<path d="M24 4m1 10v2h1v-2h1v-1h1v2h1v1h2v-1h-2v-3h-1v-2h1v-2h-1v2h-1v2h-1v2z" />
<path d="M32 4m0 6v1h1v1h-1v1h1v-1h1v-1h2v-1h-1v-2h-1v2h-1zm1 4v1h1v-1h2v1h-2v1h3v-1h1v-1h-1v-2h-1v1h-2v1zm4 -5v1h1v1h1v-1h-1v-1z" />
<path d="M40 4m0 10v1h1v-1h2v1h-2v1h3v-1h1v1h1v-1h-1v-1h-1v-4h2v-1h-2v-1h-1v5h-2v1z" />
<path d="M48 4m0 9v2h1v-2h1v-1h-1v1zm2 -5v1h2v1h1v-1h-1v-1h-1zm0 7v1h2v-1h1v-3h-1v-1h-1v1h1v3h-1zm4 -2v2h1v-2z" />
<path d="M56 4m0 5v6h1v-6zm3 1v1h2v4h-1v1h1v-1h1v-4h1v-1h-1v-2h-1v2h-1z" />
<path d="M64 4m0 5v7h1v-7zm2 5v1h1v1h4v-1h-4v-1zm1 -5v1h4v-1h-3z" />
<path d="M16 16m0 6v1h1v1h-1v1h1v-1h1v-1h2v-1h-1v-2h-1v2h-1zm1 4v1h1v-1h2v1h-2v1h3v-1h1v-1h-1v-2h-1v1h-2v1zm4 -5v1h1v1h1v-1h-1v-1z" />
<path d="M24 16m1 10v2h1v-2h1v-1h1v2h1v1h2v-1h-2v-3h-1v-2h1v-2h-1v2h-1v2h-1v2z" />
<path d="M32 16m0 7v4h1v1h2v-1h-2v-4h1v-1h1v5h1v-5h1v1h1v4h-1v1h1v-1h1v-4h-1v-1h-1v-1h-3v1h-1v1z" />
<path d="M40 16m0 10v1h1v1h5v-1h-5v-1h1v-1h-1v1zm1 -5v1h4v1h1v-1h-1v-1h-3zm3 -3v1h1v1h1v-1h-1v-1zm2 -1v1h1v1h1v-1h-1v-1z" />
<path d="M48 16m0 10v1h1v-1h2v1h-2v1h3v-1h1v1h1v-1h-1v-1h-1v-4h2v-1h-2v-1h-1v5h-2v1z" />
<path d="M56 16m1 7v1h1v-1h4v3h-1v1h-2v1h2v-1h1v-1h1v-3h-1v-1h-4v1zm1 -3v1h3v-1h-2z" />
<path d="M64 16m0 6v1h2v1h-1v2h-1v2h1v-2h1v1h1v1h1v-1h1v-4h-1v4h-1v-1h-1v-2h1v-1h1v-1h-1v-2h-1v2h-1zm5 -1v1h1v2h1v-2h-1v-1z" />
<path d="M72 16m0 6v1h1v1h-1v1h1v-1h1v-1h2v-1h-1v-2h-1v2h-1zm1 4v1h1v-1h2v1h-2v1h3v-1h1v-1h-1v-2h-1v1h-2v1zm4 -5v1h1v1h1v-1h-1v-1z" />
<path d="M80 16m1 5v2h1v-2h4v2h-2v1h-1v2h1v-2h2v-1h1v-2h-1v-1h-4v1zm2 6v1h1v-1z" />
</g>
</svg>
