<svg xmlns="http://www.w3.org/2000/svg" width="184" height="72" viewBox="0 0 92 36">
<path d="M0 1h1v-1h90v1h1v34h-1v1h-90v-1h-1z" fill="#001" stroke="none" />
<path d="M2 3h1v-1h86v1h1v30h-1v1h-86v-1h-1z" stroke="#ffe" stroke-width="2" stroke-linecap="square" fill="none" />
<g fill="#ffe" stroke="none">
<path d="M8 4m2 5v7h1v-1h1v-1h1v-1h1v-1h-1v-1h-1v-1h-1v-1z" />
<path d="M20 4m0 6v1h1v4h1v1h1v-1h-1v-4h4v2h-2v-1h-1v1h1v1h2v-1h1v-2h-1v-1h-1v-2h-1v2h-2v-2h-1v2z" />
<path d="M28 4m2 7v2h1v1h1v1h1v1h1v-1h-1v-1h-1v-1h-1v-2h1v-1h1v-1h1v-1h-1v1h-1v1h-1v1z" />
<path d="M36 4m0 7v1h3v1h-1v2h1v1h3v-1h-3v-2h1v-1h3v-1h-4v-1h1v-1h1v-1h-4v1h2v1h-1v1h-1z" />
<path d="M44 4m1 7v1h1v-1h4v3h-1v1h-2v1h2v-1h1v-1h1v-3h-1v-1h-4v1zm1 -3v1h3v-1h-2z" />
<path d="M68 4m1 6v5h1v1h4v-1h1v-3h-1v3h-4v-3h4v-1h-4v-1h1v-1h3v-1h-3v1h-1v1z" />
<path d="M76 4m0 7v3h1v1h1v1h4v-1h1v-3h-3v1h2v2h-4v-1h-1v-3h1v-1h4v1h1v-1h-1v-1h-4v1h-1v1z" />
<path d="M20 16m0 10v1h1v1h5v-1h-5v-1h1v-1h-1v1zm1 -5v1h4v1h1v-1h-1v-1h-3z" />
<path d="M28 16m1 10v2h1v-2h1v-1h1v2h1v1h2v-1h-2v-3h-1v-2h1v-2h-1v2h-1v2h-1v2z" />
<path d="M36 16m0 4v8h1v-8zm2 5v2h1v-2h2v2h-2v1h3v-2h1v-1h-1v-2h1v-1h-1v-1h1v-1h-1v-1h-1v-1h-1v1h1v1h-2v1h2v1h-2v1h2v1h-2v1zm4 -8v1h1v1h1v-1h-1v-1z" />
<path d="M44 16m1 7v1h1v-1h4v3h-1v1h-2v1h2v-1h1v-1h1v-3h-1v-1h-4v1zm1 -3v1h3v-1h-2z" />
<path d="M60 16m1 5v1h1v-1h4v2h-1v1h-2v1h-1v1h-1v2h6v-1h-5v-1h1v-1h2v-1h1v-1h1v-2h-1v-1h-4v1z" />
<path d="M68 16m1 5v6h1v1h4v-1h1v-6h-1v6h-4v-6h4v-1h-4v1z" />
<path d="M76 16m0 7v3h1v1h1v1h4v-1h1v-3h-3v1h2v2h-4v-1h-1v-3h1v-1h4v1h1v-1h-1v-1h-4v1h-1v1z" />
</g>
</svg>
