<svg xmlns="http://www.w3.org/2000/svg" width="96" height="120" viewBox="0 0 96 120">
<path d="M0 1h1v-1h94v1h1v118h-1v1h-94v-1h-1z" fill="#001" stroke="none" />
<path d="M2 3h1v-1h90v1h1v114h-1v1h-90v-1h-1z" stroke="#ffe" stroke-width="2" stroke-linecap="square" fill="none" />
<g fill="#ffe" stroke="none">
<path d="M32 4m0 6v1h2v1h-2v1h2v2h1v1h3v-1h1v-1h-1v1h-3v-2h2v-1h-2v-1h2v-1h-2v-2h-1v2h-1z" />
<path d="M40 4m0 10v1h1v-1h1v1h-1v1h2v-1h1v1h1v-1h-1v-1h-1v-2h2v-1h-2v-1h-1v3h-1v1z" />
<path d="M48 4m0 6v1h2v1h-2v1h2v2h1v1h3v-1h1v-1h-1v1h-3v-2h2v-1h-2v-1h2v-1h-2v-2h-1v2h-1z" />
<path d="M56 4m0 9v2h1v1h6v-1h-6v-2h1v-1h2v-1h2v-1h-2v1h-1v-3h-1v4h-1v1z" />
<rect x="3" y="22" width="90" height="2" />
<path d="M8 28m0 6v1h6v3h-2v1h-2v1h2v-1h2v-1h1v-3h-1v-1h-5z" />
<path d="M16 28m0 10v1h1v-1h2v1h-2v1h3v-1h1v1h1v-1h-1v-1h-1v-4h2v-1h-2v-1h-1v5h-2v1z" />
<path d="M24 28m0 6v1h4v2h2v-1h-1v-1h2v-1h-3v-1h-1v-1h-1v1h1v1h-2zm0 3v1h1v1h1v1h4v-1h-4v-1h-1v-1z" />
<path d="M48 28m3 5v2h2v-2h-1zm0 4v2h2v-2h-1z" />
<path d="M72 28m2 5v1h1v5h-1v1h3v-1h-1v-7h-1v1z" />
<path d="M80 28m1 5v6h1v1h4v-1h1v-6h-1v6h-4v-6h4v-1h-4v1z" />
<path d="M8 40m0 6v1h2v1h-1v2h-1v2h1v-2h1v1h1v1h1v-1h1v-4h-1v4h-1v-1h-1v-2h1v-1h1v-1h-1v-2h-1v2h-1zm5 -1v1h1v2h1v-2h-1v-1z" />
<path d="M16 40m1 4v7h1v1h3v-1h1v-2h-1v2h-3v-7z" />
<path d="M24 40m0 10v1h1v1h5v-1h-5v-1h1v-1h-1v1zm1 -5v1h4v1h1v-1h-1v-1h-3z" />
<path d="M32 40m0 6v1h4v2h2v-1h-1v-1h2v-1h-3v-1h-1v-1h-1v1h1v1h-2zm0 3v1h1v1h1v1h4v-1h-4v-1h-1v-1z" />
<path d="M48 40m3 5v2h2v-2h-1zm0 4v2h2v-2h-1z" />
<path d="M80 40m1 5v3h1v1h4v1h-1v1h-2v1h2v-1h1v-1h1v-5h-1v3h-4v-3h4v-1h-4v1z" />
<path d="M8 52m1 7v1h1v-1h4v3h-1v1h-2v1h2v-1h1v-1h1v-3h-1v-1h-4v1zm1 -3v1h3v-1h-2z" />
<path d="M16 52m1 10v2h1v-2h1v-1h1v2h1v1h2v-1h-2v-3h-1v-2h1v-2h-1v2h-1v2h-1v2z" />
<path d="M48 52m3 5v2h2v-2h-1zm0 4v2h2v-2h-1z" />
<path d="M80 52m1 4v1h5v1h-1v1h-2v1h2v1h1v2h-4v-1h-1v1h1v1h4v-1h1v-2h-1v-1h-1v-1h1v-1h1v-2h-5z" />
<path d="M8 76m1 5v7h6v-1h-5v-2h4v-1h-4v-2h5v-1h-5z" />
<path d="M20 76m0 10v1h1v1h5v-1h-5v-1h1v-1h-1v1zm1 -5v1h4v1h1v-1h-1v-1h-3z" />
<path d="M28 76m1 10v2h1v-2h1v-1h1v2h1v1h2v-1h-2v-3h-1v-2h1v-2h-1v2h-1v2h-1v2z" />
<path d="M36 76m0 4v8h1v-8zm2 5v2h1v-2h2v2h-2v1h3v-2h1v-1h-1v-2h1v-1h-1v-1h1v-1h-1v-1h-1v-1h-1v1h1v1h-2v1h2v1h-2v1h2v1h-2v1zm4 -8v1h1v1h1v-1h-1v-1z" />
<path d="M44 76m1 7v1h1v-1h4v3h-1v1h-2v1h2v-1h1v-1h1v-3h-1v-1h-4v1zm1 -3v1h3v-1h-2z" />
<path d="M8 88m1 5v7h6v-1h-5v-2h4v-1h-4v-2h5v-1h-5z" />
<path d="M20 88m0 6v1h2v1h-1v2h-1v2h1v-2h1v1h1v1h1v-1h1v-4h-1v4h-1v-1h-1v-2h1v-1h1v-1h-1v-2h-1v2h-1zm5 -1v1h1v2h1v-2h-1v-1z" />
<path d="M28 88m0 6v1h2v2h-1v1h-1v1h1v-1h1v2h1v-4h1v-1h2v4h-1v1h1v-1h1v-4h-1v-1h-2v1h-1v-3h-1v2h-1z" />
<path d="M36 88m0 7v4h1v1h2v-1h-2v-4h1v-1h1v5h1v-5h1v1h1v4h-1v1h1v-1h1v-4h-1v-1h-1v-1h-3v1h-1v1z" />
<path d="M44 88m0 6v1h2v1h-1v2h-1v2h1v-2h1v-2h1v-1h3v-1h-3v-2h-1v2h-1zm3 4v1h1v1h3v-1h-3v-1zm1 -2v1h3v-1h-2z" />
<path d="M52 88m0 5v1h4v1h-1v1h-1v2h1v1h1v1h2v-1h-2v-1h-1v-2h1v-1h2v-1h1v-1h-6z" />
<path d="M8 100m1 5v7h6v-1h-5v-2h4v-1h-4v-2h5v-1h-5z" />
<path d="M20 100m0 5v1h2v2h-1v1h-1v2h1v1h2v-1h1v-1h1v-1h-1v1h-1v1h-2v-2h1v1h1v-2h2v1h1v2h-1v1h1v-1h1v-3h-1v-1h-3v-1h3v-1h-3v-1h-1v1h-1z" />
<path d="M28 100m2 7v2h1v1h1v1h1v1h1v-1h-1v-1h-1v-1h-1v-2h1v-1h1v-1h1v-1h-1v1h-1v1h-1v1z" />
<path d="M36 100m1 10v1h1v-1h2v1h-2v1h3v-2h1v1h1v-1h-1v-1h-1v-1h2v-1h-2v-1h2v-1h-2v-1h-1v1h-2v1h2v1h-2v1h2v1h-2v1z" />
<path d="M44 100m0 7v4h1v1h2v-1h-2v-4h1v-1h1v5h1v-5h1v1h1v4h-1v1h1v-1h1v-4h-1v-1h-1v-1h-3v1h-1v1z" />
<path d="M52 100m1 4v7h1v1h3v-1h1v-2h-1v2h-3v-7z" />
<path d="M60 100m0 7v1h4v2h-1v1h-2v1h2v-1h1v-1h1v-2h-1v-1h-3z" />
<path d="M68 100m0 4v8h1v-8zm2 5v2h1v-2h2v2h-2v1h3v-2h1v-1h-1v-2h1v-1h-1v-1h1v-1h1v-3h-3v3h-2v1h2v1h-2v1h2v1h-2v1zm4 -7h1v1h-1z" />
<path d="M80 100m1 5v5h1v2h1v-1h1v1h1v-1h1v1h1v-2h1v-5h-1v-1h-5v1zm1 2h2v2h1v-2h2v2h-2v1h-1v-1h-2v-1z" />
</g>
</svg>
